<?xml version="1.0" encoding="UTF-8" standalone="no"?>
<!DOCTYPE svg PUBLIC "-//W3C//DTD SVG 1.1//EN"
 "http://www.w3.org/Graphics/SVG/1.1/DTD/svg11.dtd">
<!-- Generated by graphviz version 2.40.1 (20161225.0304)
 -->
<!-- Title: state transitions Pages: 1 -->
<svg width="646pt" height="134pt"
 viewBox="0.00 0.00 646.41 134.00" xmlns="http://www.w3.org/2000/svg" xmlns:xlink="http://www.w3.org/1999/xlink">
<g id="graph0" class="graph" transform="scale(1 1) rotate(0) translate(4 130)">
<title>state transitions</title>
<polygon fill="#ffffff" stroke="transparent" points="-4,4 -4,-130 642.413,-130 642.413,4 -4,4"/>
<!-- initial -->
<g id="node1" class="node">
<title>initial</title>
<ellipse fill="#000000" stroke="#000000" stroke-width="2" cx="5.5" cy="-63" rx="5.5" ry="5.5"/>
</g>
<!--  &#160;&#160;&#160;&#160;&#160;&#160;&#160;&#160;&#160;&#160;&#160;&#160;&#160;&#160;Default &#160;&#160;&#160;&#160;&#160;&#160;&#160;&#160;&#160;&#160;&#160;&#160;&#160;&#160; -->
<g id="node2" class="node">
<title> &#160;&#160;&#160;&#160;&#160;&#160;&#160;&#160;&#160;&#160;&#160;&#160;&#160;&#160;Default &#160;&#160;&#160;&#160;&#160;&#160;&#160;&#160;&#160;&#160;&#160;&#160;&#160;&#160;</title>
<path fill="none" stroke="#008800" stroke-width="2" d="M299.246,-126C299.246,-126 111.246,-126 111.246,-126 105.246,-126 99.246,-120 99.246,-114 99.246,-114 99.246,-12 99.246,-12 99.246,-6 105.246,0 111.246,0 111.246,0 299.246,0 299.246,0 305.246,0 311.246,-6 311.246,-12 311.246,-12 311.246,-114 311.246,-114 311.246,-120 305.246,-126 299.246,-126"/>
<text text-anchor="start" x="136.2202" y="-110.2" font-family="Helvetica,sans-Serif" font-style="italic" font-size="12.00" fill="#000000"> &#160;&#160;&#160;&#160;&#160;&#160;&#160;&#160;&#160;&#160;&#160;&#160;&#160;&#160;Default &#160;&#160;&#160;&#160;&#160;&#160;&#160;&#160;&#160;&#160;&#160;&#160;&#160;&#160;</text>
<text text-anchor="start" x="105.246" y="-89.2" font-family="Helvetica,sans-Serif" font-size="12.00" fill="#000000">&lt;No Flag&gt;</text>
<text text-anchor="start" x="105.2386" y="-69.2" font-family="Helvetica,sans-Serif" font-size="12.00" fill="#000000">&#45;Can discover via browse/search/filter</text>
<text text-anchor="start" x="105.246" y="-49.2" font-family="Helvetica,sans-Serif" font-size="12.00" fill="#000000">&#45;Can be bought/sold</text>
<text text-anchor="start" x="105.246" y="-29.2" font-family="Helvetica,sans-Serif" font-size="12.00" fill="#000000">&#45;Can be consumed</text>
<text text-anchor="start" x="105.246" y="-9.2" font-family="Helvetica,sans-Serif" font-size="12.00" fill="#000000">&#45;Can be staked/unstaked</text>
<polygon fill="#008800" stroke="#008800" points="99.246,-103 99.246,-103 311.246,-103 311.246,-103 99.246,-103"/>
<path fill="none" stroke="#008800" stroke-width="2" d="M112.246,-1C112.246,-1 298.246,-1 298.246,-1 304.246,-1 310.246,-7 310.246,-13 310.246,-13 310.246,-113 310.246,-113 310.246,-119 304.246,-125 298.246,-125 298.246,-125 112.246,-125 112.246,-125 106.246,-125 100.246,-119 100.246,-113 100.246,-113 100.246,-13 100.246,-13 100.246,-7 106.246,-1 112.246,-1"/>
</g>
<!-- initial&#45;&gt; &#160;&#160;&#160;&#160;&#160;&#160;&#160;&#160;&#160;&#160;&#160;&#160;&#160;&#160;Default &#160;&#160;&#160;&#160;&#160;&#160;&#160;&#160;&#160;&#160;&#160;&#160;&#160;&#160; -->
<g id="edge1" class="edge">
<title>initial&#45;&gt; &#160;&#160;&#160;&#160;&#160;&#160;&#160;&#160;&#160;&#160;&#160;&#160;&#160;&#160;Default &#160;&#160;&#160;&#160;&#160;&#160;&#160;&#160;&#160;&#160;&#160;&#160;&#160;&#160;</title>
<path fill="none" stroke="#000000" d="M11.2626,-63C23.7796,-63 55.0645,-63 88.9428,-63"/>
<polygon fill="#000000" stroke="#000000" points="89.0357,-66.5001 99.0357,-63 89.0356,-59.5001 89.0357,-66.5001"/>
<text text-anchor="start" x="19" y="-66" font-family="Helvetica,sans-Serif" font-size="10.00" fill="#000000"> Asset created &#160;&#160;</text>
</g>
<!--  &#160;&#160;&#160;&#160;&#160;&#160;Purgatory &#160;&#160;&#160;&#160;&#160;&#160; -->
<g id="node3" class="node">
<title> &#160;&#160;&#160;&#160;&#160;&#160;Purgatory &#160;&#160;&#160;&#160;&#160;&#160;</title>
<polygon fill="transparent" stroke="transparent" stroke-width="2" points="638.413,-126 473.413,-126 473.413,0 638.413,0 638.413,-126"/>
<text text-anchor="start" x="507.0642" y="-109.2" font-family="Helvetica,sans-Serif" font-size="12.00" fill="#000000"> &#160;&#160;&#160;&#160;&#160;&#160;Purgatory &#160;&#160;&#160;&#160;&#160;&#160;</text>
<text text-anchor="start" x="479.913" y="-89.2" font-family="Helvetica,sans-Serif" font-size="12.00" fill="#000000">&lt;Has Purgatory Flag&gt;</text>
<text text-anchor="start" x="479.913" y="-69.2" font-family="Helvetica,sans-Serif" font-size="12.00" fill="#000000">&#45;Not discoverable</text>
<text text-anchor="start" x="479.7468" y="-49.2" font-family="Helvetica,sans-Serif" font-size="12.00" fill="#000000">&#45;Access only directly from url</text>
<text text-anchor="start" x="479.913" y="-29.2" font-family="Helvetica,sans-Serif" font-size="12.00" fill="#000000">&#45;Non&#45;publishers can unstake</text>
<text text-anchor="start" x="479.913" y="-9.2" font-family="Helvetica,sans-Serif" font-size="12.00" fill="#000000">.</text>
<polygon fill="#ffa500" stroke="#ffa500" points="473.913,-103 473.913,-103 638.913,-103 638.913,-103 473.913,-103"/>
<path fill="none" stroke="#ffa500" stroke-width="2" d="M486.413,-1C486.413,-1 625.413,-1 625.413,-1 631.413,-1 637.413,-7 637.413,-13 637.413,-13 637.413,-113 637.413,-113 637.413,-119 631.413,-125 625.413,-125 625.413,-125 486.413,-125 486.413,-125 480.413,-125 474.413,-119 474.413,-113 474.413,-113 474.413,-13 474.413,-13 474.413,-7 480.413,-1 486.413,-1"/>
</g>
<!--  &#160;&#160;&#160;&#160;&#160;&#160;&#160;&#160;&#160;&#160;&#160;&#160;&#160;&#160;Default &#160;&#160;&#160;&#160;&#160;&#160;&#160;&#160;&#160;&#160;&#160;&#160;&#160;&#160;&#45;&gt; &#160;&#160;&#160;&#160;&#160;&#160;Purgatory &#160;&#160;&#160;&#160;&#160;&#160; -->
<g id="edge2" class="edge">
<title> &#160;&#160;&#160;&#160;&#160;&#160;&#160;&#160;&#160;&#160;&#160;&#160;&#160;&#160;Default &#160;&#160;&#160;&#160;&#160;&#160;&#160;&#160;&#160;&#160;&#160;&#160;&#160;&#160;&#45;&gt; &#160;&#160;&#160;&#160;&#160;&#160;Purgatory &#160;&#160;&#160;&#160;&#160;&#160;</title>
<path fill="none" stroke="#000000" d="M311.4093,-63C359.7685,-63 416.4884,-63 463.1174,-63"/>
<polygon fill="#000000" stroke="#000000" points="463.2114,-66.5001 473.2114,-63 463.2114,-59.5001 463.2114,-66.5001"/>
<text text-anchor="start" x="319.246" y="-66" font-family="Helvetica,sans-Serif" font-size="10.00" fill="#000000"> &#160;Asset got a notice or flagged &#160;&#160;&#160;&#160;</text>
</g>
<!--  &#160;&#160;&#160;&#160;&#160;&#160;Purgatory &#160;&#160;&#160;&#160;&#160;&#160;&#45;&gt; &#160;&#160;&#160;&#160;&#160;&#160;&#160;&#160;&#160;&#160;&#160;&#160;&#160;&#160;Default &#160;&#160;&#160;&#160;&#160;&#160;&#160;&#160;&#160;&#160;&#160;&#160;&#160;&#160; -->
<g id="edge3" class="edge">
<title> &#160;&#160;&#160;&#160;&#160;&#160;Purgatory &#160;&#160;&#160;&#160;&#160;&#160;&#45;&gt; &#160;&#160;&#160;&#160;&#160;&#160;&#160;&#160;&#160;&#160;&#160;&#160;&#160;&#160;Default &#160;&#160;&#160;&#160;&#160;&#160;&#160;&#160;&#160;&#160;&#160;&#160;&#160;&#160;</title>
<path fill="none" stroke="#000000" d="M473.1447,-46.8162C470.5418,-46.511 467.9598,-46.2371 465.413,-46 403.888,-40.2715 385.7764,-41.0943 321.6355,-45.8792"/>
<polygon fill="#000000" stroke="#000000" points="321.0922,-42.41 311.3816,-46.647 321.615,-49.3904 321.0922,-42.41"/>
<text text-anchor="start" x="360.932" y="-49" font-family="Helvetica,sans-Serif" font-size="10.00" fill="#000000"> &#160;Retracted &#160;&#160;&#160;&#160;</text>
</g>
</g>
</svg>
