<?xml version="1.0" encoding="UTF-8" standalone="no"?>
<!DOCTYPE svg PUBLIC "-//W3C//DTD SVG 1.1//EN"
 "http://www.w3.org/Graphics/SVG/1.1/DTD/svg11.dtd">
<!-- Generated by graphviz version 2.40.1 (20161225.0304)
 -->
<!-- Title: state transitions Pages: 1 -->
<svg width="822pt" height="114pt"
 viewBox="0.00 0.00 822.02 114.00" xmlns="http://www.w3.org/2000/svg" xmlns:xlink="http://www.w3.org/1999/xlink">
<g id="graph0" class="graph" transform="scale(1 1) rotate(0) translate(4 110)">
<title>state transitions</title>
<polygon fill="#ffffff" stroke="transparent" points="-4,4 -4,-110 818.016,-110 818.016,4 -4,4"/>
<!-- initial -->
<g id="node1" class="node">
<title>initial</title>
<ellipse fill="#000000" stroke="#000000" stroke-width="2" cx="5.5" cy="-53" rx="5.5" ry="5.5"/>
</g>
<!--  &#160;&#160;&#160;&#160;&#160;&#160;&#160;&#160;&#160;&#160;&#160;&#160;&#160;&#160;Default &#160;&#160;&#160;&#160;&#160;&#160;&#160;&#160;&#160;&#160;&#160;&#160;&#160;&#160; -->
<g id="node2" class="node">
<title> &#160;&#160;&#160;&#160;&#160;&#160;&#160;&#160;&#160;&#160;&#160;&#160;&#160;&#160;Default &#160;&#160;&#160;&#160;&#160;&#160;&#160;&#160;&#160;&#160;&#160;&#160;&#160;&#160;</title>
<path fill="none" stroke="#008800" stroke-width="2" d="M237.246,-106C237.246,-106 111.246,-106 111.246,-106 105.246,-106 99.246,-100 99.246,-94 99.246,-94 99.246,-12 99.246,-12 99.246,-6 105.246,0 111.246,0 111.246,0 237.246,0 237.246,0 243.246,0 249.246,-6 249.246,-12 249.246,-12 249.246,-94 249.246,-94 249.246,-100 243.246,-106 237.246,-106"/>
<text text-anchor="start" x="105.2202" y="-90.2" font-family="Helvetica,sans-Serif" font-style="italic" font-size="12.00" fill="#000000"> &#160;&#160;&#160;&#160;&#160;&#160;&#160;&#160;&#160;&#160;&#160;&#160;&#160;&#160;Default &#160;&#160;&#160;&#160;&#160;&#160;&#160;&#160;&#160;&#160;&#160;&#160;&#160;&#160;</text>
<text text-anchor="start" x="105.246" y="-69.2" font-family="Helvetica,sans-Serif" font-size="12.00" fill="#000000">&lt;Visible&gt;</text>
<text text-anchor="start" x="105.246" y="-49.2" font-family="Helvetica,sans-Serif" font-size="12.00" fill="#000000">&#45;Can be bought/sold</text>
<text text-anchor="start" x="105.246" y="-29.2" font-family="Helvetica,sans-Serif" font-size="12.00" fill="#000000">&#45;Can be consumed</text>
<text text-anchor="start" x="105.246" y="-9.2" font-family="Helvetica,sans-Serif" font-size="12.00" fill="#000000">&#45;Can be staked/unstaked</text>
<polygon fill="#008800" stroke="#008800" points="99.246,-83 99.246,-83 249.246,-83 249.246,-83 99.246,-83"/>
<path fill="none" stroke="#008800" stroke-width="2" d="M112.246,-1C112.246,-1 236.246,-1 236.246,-1 242.246,-1 248.246,-7 248.246,-13 248.246,-13 248.246,-93 248.246,-93 248.246,-99 242.246,-105 236.246,-105 236.246,-105 112.246,-105 112.246,-105 106.246,-105 100.246,-99 100.246,-93 100.246,-93 100.246,-13 100.246,-13 100.246,-7 106.246,-1 112.246,-1"/>
</g>
<!-- initial&#45;&gt; &#160;&#160;&#160;&#160;&#160;&#160;&#160;&#160;&#160;&#160;&#160;&#160;&#160;&#160;Default &#160;&#160;&#160;&#160;&#160;&#160;&#160;&#160;&#160;&#160;&#160;&#160;&#160;&#160; -->
<g id="edge1" class="edge">
<title>initial&#45;&gt; &#160;&#160;&#160;&#160;&#160;&#160;&#160;&#160;&#160;&#160;&#160;&#160;&#160;&#160;Default &#160;&#160;&#160;&#160;&#160;&#160;&#160;&#160;&#160;&#160;&#160;&#160;&#160;&#160;</title>
<path fill="none" stroke="#000000" d="M11.1145,-53C23.8119,-53 56.1747,-53 88.759,-53"/>
<polygon fill="#000000" stroke="#000000" points="88.857,-56.5001 98.857,-53 88.8569,-49.5001 88.857,-56.5001"/>
<text text-anchor="start" x="19" y="-56" font-family="Helvetica,sans-Serif" font-size="10.00" fill="#000000"> Asset created &#160;&#160;</text>
</g>
<!--  &#160;&#160;&#160;&#160;&#160;&#160;Purgatory &#160;&#160;&#160;&#160;&#160;&#160; -->
<g id="node3" class="node">
<title> &#160;&#160;&#160;&#160;&#160;&#160;Purgatory &#160;&#160;&#160;&#160;&#160;&#160;</title>
<polygon fill="transparent" stroke="transparent" stroke-width="2" points="575.413,-106 411.413,-106 411.413,0 575.413,0 575.413,-106"/>
<text text-anchor="start" x="444.0642" y="-89.2" font-family="Helvetica,sans-Serif" font-size="12.00" fill="#000000"> &#160;&#160;&#160;&#160;&#160;&#160;Purgatory &#160;&#160;&#160;&#160;&#160;&#160;</text>
<text text-anchor="start" x="417.413" y="-69.2" font-family="Helvetica,sans-Serif" font-size="12.00" fill="#000000">&lt;Visible with Flag&gt;</text>
<text text-anchor="start" x="417.0642" y="-49.2" font-family="Helvetica,sans-Serif" font-size="12.00" fill="#000000">&#45;Non&#45;publishers can unstake</text>
<text text-anchor="start" x="417.413" y="-29.2" font-family="Helvetica,sans-Serif" font-size="12.00" fill="#000000">.</text>
<text text-anchor="start" x="417.413" y="-9.2" font-family="Helvetica,sans-Serif" font-size="12.00" fill="#000000">.</text>
<polygon fill="#ffa500" stroke="#ffa500" points="411.413,-83 411.413,-83 575.413,-83 575.413,-83 411.413,-83"/>
<path fill="none" stroke="#ffa500" stroke-width="2" d="M424.413,-1C424.413,-1 562.413,-1 562.413,-1 568.413,-1 574.413,-7 574.413,-13 574.413,-13 574.413,-93 574.413,-93 574.413,-99 568.413,-105 562.413,-105 562.413,-105 424.413,-105 424.413,-105 418.413,-105 412.413,-99 412.413,-93 412.413,-93 412.413,-13 412.413,-13 412.413,-7 418.413,-1 424.413,-1"/>
</g>
<!--  &#160;&#160;&#160;&#160;&#160;&#160;&#160;&#160;&#160;&#160;&#160;&#160;&#160;&#160;Default &#160;&#160;&#160;&#160;&#160;&#160;&#160;&#160;&#160;&#160;&#160;&#160;&#160;&#160;&#45;&gt; &#160;&#160;&#160;&#160;&#160;&#160;Purgatory &#160;&#160;&#160;&#160;&#160;&#160; -->
<g id="edge2" class="edge">
<title> &#160;&#160;&#160;&#160;&#160;&#160;&#160;&#160;&#160;&#160;&#160;&#160;&#160;&#160;Default &#160;&#160;&#160;&#160;&#160;&#160;&#160;&#160;&#160;&#160;&#160;&#160;&#160;&#160;&#45;&gt; &#160;&#160;&#160;&#160;&#160;&#160;Purgatory &#160;&#160;&#160;&#160;&#160;&#160;</title>
<path fill="none" stroke="#000000" d="M249.48,-53C294.9033,-53 353.1212,-53 401.2896,-53"/>
<polygon fill="#000000" stroke="#000000" points="401.4075,-56.5001 411.4074,-53 401.4074,-49.5001 401.4075,-56.5001"/>
<text text-anchor="start" x="257.246" y="-56" font-family="Helvetica,sans-Serif" font-size="10.00" fill="#000000"> &#160;Asset got a notice or flagged &#160;&#160;&#160;&#160;</text>
</g>
<!--  &#160;&#160;&#160;&#160;&#160;&#160;Purgatory &#160;&#160;&#160;&#160;&#160;&#160;&#45;&gt; &#160;&#160;&#160;&#160;&#160;&#160;&#160;&#160;&#160;&#160;&#160;&#160;&#160;&#160;Default &#160;&#160;&#160;&#160;&#160;&#160;&#160;&#160;&#160;&#160;&#160;&#160;&#160;&#160; -->
<g id="edge5" class="edge">
<title> &#160;&#160;&#160;&#160;&#160;&#160;Purgatory &#160;&#160;&#160;&#160;&#160;&#160;&#45;&gt; &#160;&#160;&#160;&#160;&#160;&#160;&#160;&#160;&#160;&#160;&#160;&#160;&#160;&#160;Default &#160;&#160;&#160;&#160;&#160;&#160;&#160;&#160;&#160;&#160;&#160;&#160;&#160;&#160;</title>
<path fill="none" stroke="#000000" d="M411.1029,-36.8162C408.5142,-36.5111 405.9461,-36.2371 403.413,-36 341.8909,-30.2405 323.638,-29.5107 259.882,-35.843"/>
<polygon fill="#000000" stroke="#000000" points="259.2883,-32.3851 249.6916,-36.8743 259.9932,-39.3495 259.2883,-32.3851"/>
<text text-anchor="start" x="298.932" y="-39" font-family="Helvetica,sans-Serif" font-size="10.00" fill="#000000"> &#160;Retracted &#160;&#160;&#160;&#160;</text>
</g>
<!--  &#160;&#160;&#160;&#160;Disabled &#160;&#160;&#160;&#160; -->
<g id="node4" class="node">
<title> &#160;&#160;&#160;&#160;Disabled &#160;&#160;&#160;&#160;</title>
<polygon fill="transparent" stroke="transparent" stroke-width="2" points="814.016,-106 722.016,-106 722.016,0 814.016,0 814.016,-106"/>
<text text-anchor="start" x="728.0062" y="-89.2" font-family="Helvetica,sans-Serif" font-size="12.00" fill="#000000"> &#160;&#160;&#160;&#160;Disabled &#160;&#160;&#160;&#160;</text>
<text text-anchor="start" x="728.016" y="-69.2" font-family="Helvetica,sans-Serif" font-size="12.00" fill="#000000">&lt;Not Visible&gt;</text>
<text text-anchor="start" x="728.016" y="-49.2" font-family="Helvetica,sans-Serif" font-size="12.00" fill="#000000">.</text>
<text text-anchor="start" x="728.016" y="-29.2" font-family="Helvetica,sans-Serif" font-size="12.00" fill="#000000">.</text>
<text text-anchor="start" x="728.016" y="-9.2" font-family="Helvetica,sans-Serif" font-size="12.00" fill="#000000">.</text>
<polygon fill="#ff0000" stroke="#ff0000" points="722.016,-83 722.016,-83 814.016,-83 814.016,-83 722.016,-83"/>
<path fill="none" stroke="#ff0000" stroke-width="2" d="M735.016,-1C735.016,-1 801.016,-1 801.016,-1 807.016,-1 813.016,-7 813.016,-13 813.016,-13 813.016,-93 813.016,-93 813.016,-99 807.016,-105 801.016,-105 801.016,-105 735.016,-105 735.016,-105 729.016,-105 723.016,-99 723.016,-93 723.016,-93 723.016,-13 723.016,-13 723.016,-7 729.016,-1 735.016,-1"/>
</g>
<!--  &#160;&#160;&#160;&#160;&#160;&#160;Purgatory &#160;&#160;&#160;&#160;&#160;&#160;&#45;&gt; &#160;&#160;&#160;&#160;Disabled &#160;&#160;&#160;&#160; -->
<g id="edge3" class="edge">
<title> &#160;&#160;&#160;&#160;&#160;&#160;Purgatory &#160;&#160;&#160;&#160;&#160;&#160;&#45;&gt; &#160;&#160;&#160;&#160;Disabled &#160;&#160;&#160;&#160;</title>
<path fill="none" stroke="#000000" d="M575.431,-53C619.3888,-53 672.4224,-53 711.698,-53"/>
<polygon fill="#000000" stroke="#000000" points="711.8813,-56.5001 721.8813,-53 711.8813,-49.5001 711.8813,-56.5001"/>
<text text-anchor="start" x="601.2085" y="-56" font-family="Helvetica,sans-Serif" font-size="10.00" fill="#000000"> &#160;Time passed AND &#160;&#160;</text>
</g>
<!--  &#160;&#160;&#160;&#160;&#160;&#160;Purgatory &#160;&#160;&#160;&#160;&#160;&#160;&#45;&gt; &#160;&#160;&#160;&#160;Disabled &#160;&#160;&#160;&#160; -->
<g id="edge4" class="edge">
<title> &#160;&#160;&#160;&#160;&#160;&#160;Purgatory &#160;&#160;&#160;&#160;&#160;&#160;&#45;&gt; &#160;&#160;&#160;&#160;Disabled &#160;&#160;&#160;&#160;</title>
<path fill="none" stroke="#000000" d="M575.7231,-36.8162C578.3118,-36.5111 580.8799,-36.2371 583.413,-36 638.1584,-30.8749 654.8979,-27.5474 712.053,-35.9764"/>
<polygon fill="#000000" stroke="#000000" points="711.5737,-39.4437 721.9878,-37.4951 712.6316,-32.5241 711.5737,-39.4437"/>
<text text-anchor="start" x="583.413" y="-39" font-family="Helvetica,sans-Serif" font-size="10.00" fill="#000000"> &#160;Enough stake removed &#160;&#160;&#160;&#160;&#160;&#160;&#160;</text>
</g>
</g>
</svg>
