<?xml version="1.0" encoding="UTF-8" standalone="no"?>
<!DOCTYPE svg PUBLIC "-//W3C//DTD SVG 1.1//EN"
 "http://www.w3.org/Graphics/SVG/1.1/DTD/svg11.dtd">
<!-- Generated by graphviz version 2.40.1 (20161225.0304)
 -->
<!-- Title: state transitions Pages: 1 -->
<svg width="646pt" height="154pt"
 viewBox="0.00 0.00 646.41 154.00" xmlns="http://www.w3.org/2000/svg" xmlns:xlink="http://www.w3.org/1999/xlink">
<g id="graph0" class="graph" transform="scale(1 1) rotate(0) translate(4 150)">
<title>state transitions</title>
<polygon fill="#ffffff" stroke="transparent" points="-4,4 -4,-150 642.413,-150 642.413,4 -4,4"/>
<!-- initial -->
<g id="node1" class="node">
<title>initial</title>
<ellipse fill="#000000" stroke="#000000" stroke-width="2" cx="5.5" cy="-73" rx="5.5" ry="5.5"/>
</g>
<!--  &#160;&#160;&#160;&#160;&#160;&#160;&#160;&#160;&#160;&#160;&#160;&#160;&#160;&#160;Default &#160;&#160;&#160;&#160;&#160;&#160;&#160;&#160;&#160;&#160;&#160;&#160;&#160;&#160; -->
<g id="node2" class="node">
<title> &#160;&#160;&#160;&#160;&#160;&#160;&#160;&#160;&#160;&#160;&#160;&#160;&#160;&#160;Default &#160;&#160;&#160;&#160;&#160;&#160;&#160;&#160;&#160;&#160;&#160;&#160;&#160;&#160;</title>
<path fill="none" stroke="#008800" stroke-width="2" d="M299.246,-136C299.246,-136 111.246,-136 111.246,-136 105.246,-136 99.246,-130 99.246,-124 99.246,-124 99.246,-22 99.246,-22 99.246,-16 105.246,-10 111.246,-10 111.246,-10 299.246,-10 299.246,-10 305.246,-10 311.246,-16 311.246,-22 311.246,-22 311.246,-124 311.246,-124 311.246,-130 305.246,-136 299.246,-136"/>
<text text-anchor="start" x="136.2202" y="-120.2" font-family="Helvetica,sans-Serif" font-style="italic" font-size="12.00" fill="#000000"> &#160;&#160;&#160;&#160;&#160;&#160;&#160;&#160;&#160;&#160;&#160;&#160;&#160;&#160;Default &#160;&#160;&#160;&#160;&#160;&#160;&#160;&#160;&#160;&#160;&#160;&#160;&#160;&#160;</text>
<text text-anchor="start" x="105.246" y="-99.2" font-family="Helvetica,sans-Serif" font-size="12.00" fill="#000000">&lt;No Flag&gt;</text>
<text text-anchor="start" x="105.2386" y="-79.2" font-family="Helvetica,sans-Serif" font-size="12.00" fill="#000000">&#45;Can discover via browse/search/filter</text>
<text text-anchor="start" x="105.246" y="-59.2" font-family="Helvetica,sans-Serif" font-size="12.00" fill="#000000">&#45;Can be bought/sold</text>
<text text-anchor="start" x="105.246" y="-39.2" font-family="Helvetica,sans-Serif" font-size="12.00" fill="#000000">&#45;Can be consumed</text>
<text text-anchor="start" x="105.246" y="-19.2" font-family="Helvetica,sans-Serif" font-size="12.00" fill="#000000">&#45;Can be staked/unstaked</text>
<polygon fill="#008800" stroke="#008800" points="99.246,-113 99.246,-113 311.246,-113 311.246,-113 99.246,-113"/>
<path fill="none" stroke="#008800" stroke-width="2" d="M112.246,-11C112.246,-11 298.246,-11 298.246,-11 304.246,-11 310.246,-17 310.246,-23 310.246,-23 310.246,-123 310.246,-123 310.246,-129 304.246,-135 298.246,-135 298.246,-135 112.246,-135 112.246,-135 106.246,-135 100.246,-129 100.246,-123 100.246,-123 100.246,-23 100.246,-23 100.246,-17 106.246,-11 112.246,-11"/>
</g>
<!-- initial&#45;&gt; &#160;&#160;&#160;&#160;&#160;&#160;&#160;&#160;&#160;&#160;&#160;&#160;&#160;&#160;Default &#160;&#160;&#160;&#160;&#160;&#160;&#160;&#160;&#160;&#160;&#160;&#160;&#160;&#160; -->
<g id="edge1" class="edge">
<title>initial&#45;&gt; &#160;&#160;&#160;&#160;&#160;&#160;&#160;&#160;&#160;&#160;&#160;&#160;&#160;&#160;Default &#160;&#160;&#160;&#160;&#160;&#160;&#160;&#160;&#160;&#160;&#160;&#160;&#160;&#160;</title>
<path fill="none" stroke="#000000" d="M11.2626,-73C23.7796,-73 55.0645,-73 88.9428,-73"/>
<polygon fill="#000000" stroke="#000000" points="89.0357,-76.5001 99.0357,-73 89.0356,-69.5001 89.0357,-76.5001"/>
<text text-anchor="start" x="19" y="-76" font-family="Helvetica,sans-Serif" font-size="10.00" fill="#000000"> Asset created &#160;&#160;</text>
</g>
<!--  &#160;&#160;&#160;&#160;&#160;&#160;Purgatory &#160;&#160;&#160;&#160;&#160;&#160; -->
<g id="node3" class="node">
<title> &#160;&#160;&#160;&#160;&#160;&#160;Purgatory &#160;&#160;&#160;&#160;&#160;&#160;</title>
<polygon fill="transparent" stroke="transparent" stroke-width="2" points="638.413,-146 473.413,-146 473.413,0 638.413,0 638.413,-146"/>
<text text-anchor="start" x="507.0642" y="-129.2" font-family="Helvetica,sans-Serif" font-size="12.00" fill="#000000"> &#160;&#160;&#160;&#160;&#160;&#160;Purgatory &#160;&#160;&#160;&#160;&#160;&#160;</text>
<text text-anchor="start" x="479.913" y="-109.2" font-family="Helvetica,sans-Serif" font-size="12.00" fill="#000000">&lt;Has Purgatory Flag&gt;</text>
<text text-anchor="start" x="479.913" y="-89.2" font-family="Helvetica,sans-Serif" font-size="12.00" fill="#000000">&#45;Not discoverable</text>
<text text-anchor="start" x="479.7468" y="-69.2" font-family="Helvetica,sans-Serif" font-size="12.00" fill="#000000">&#45;Access only directly from url</text>
<text text-anchor="start" x="479.913" y="-49.2" font-family="Helvetica,sans-Serif" font-size="12.00" fill="#000000">&#45;Non&#45;publishers can unstake</text>
<text text-anchor="start" x="479.913" y="-29.2" font-family="Helvetica,sans-Serif" font-size="12.00" fill="#000000">&#45;Users can&#39;t stake or buy</text>
<text text-anchor="start" x="479.913" y="-9.2" font-family="Helvetica,sans-Serif" font-size="12.00" fill="#000000">.</text>
<polygon fill="#ffa500" stroke="#ffa500" points="473.913,-123 473.913,-123 638.913,-123 638.913,-123 473.913,-123"/>
<path fill="none" stroke="#ffa500" stroke-width="2" d="M486.413,-1C486.413,-1 625.413,-1 625.413,-1 631.413,-1 637.413,-7 637.413,-13 637.413,-13 637.413,-133 637.413,-133 637.413,-139 631.413,-145 625.413,-145 625.413,-145 486.413,-145 486.413,-145 480.413,-145 474.413,-139 474.413,-133 474.413,-133 474.413,-13 474.413,-13 474.413,-7 480.413,-1 486.413,-1"/>
</g>
<!--  &#160;&#160;&#160;&#160;&#160;&#160;&#160;&#160;&#160;&#160;&#160;&#160;&#160;&#160;Default &#160;&#160;&#160;&#160;&#160;&#160;&#160;&#160;&#160;&#160;&#160;&#160;&#160;&#160;&#45;&gt; &#160;&#160;&#160;&#160;&#160;&#160;Purgatory &#160;&#160;&#160;&#160;&#160;&#160; -->
<g id="edge2" class="edge">
<title> &#160;&#160;&#160;&#160;&#160;&#160;&#160;&#160;&#160;&#160;&#160;&#160;&#160;&#160;Default &#160;&#160;&#160;&#160;&#160;&#160;&#160;&#160;&#160;&#160;&#160;&#160;&#160;&#160;&#45;&gt; &#160;&#160;&#160;&#160;&#160;&#160;Purgatory &#160;&#160;&#160;&#160;&#160;&#160;</title>
<path fill="none" stroke="#000000" d="M311.4093,-73C359.7685,-73 416.4884,-73 463.1174,-73"/>
<polygon fill="#000000" stroke="#000000" points="463.2114,-76.5001 473.2114,-73 463.2114,-69.5001 463.2114,-76.5001"/>
<text text-anchor="start" x="319.246" y="-76" font-family="Helvetica,sans-Serif" font-size="10.00" fill="#000000"> &#160;Asset got a notice or flagged &#160;&#160;&#160;&#160;</text>
</g>
<!--  &#160;&#160;&#160;&#160;&#160;&#160;Purgatory &#160;&#160;&#160;&#160;&#160;&#160;&#45;&gt; &#160;&#160;&#160;&#160;&#160;&#160;&#160;&#160;&#160;&#160;&#160;&#160;&#160;&#160;Default &#160;&#160;&#160;&#160;&#160;&#160;&#160;&#160;&#160;&#160;&#160;&#160;&#160;&#160; -->
<g id="edge3" class="edge">
<title> &#160;&#160;&#160;&#160;&#160;&#160;Purgatory &#160;&#160;&#160;&#160;&#160;&#160;&#45;&gt; &#160;&#160;&#160;&#160;&#160;&#160;&#160;&#160;&#160;&#160;&#160;&#160;&#160;&#160;Default &#160;&#160;&#160;&#160;&#160;&#160;&#160;&#160;&#160;&#160;&#160;&#160;&#160;&#160;</title>
<path fill="none" stroke="#000000" d="M473.1447,-56.8162C470.5418,-56.511 467.9598,-56.2371 465.413,-56 403.888,-50.2715 385.7764,-51.0943 321.6355,-55.8792"/>
<polygon fill="#000000" stroke="#000000" points="321.0922,-52.41 311.3816,-56.647 321.615,-59.3904 321.0922,-52.41"/>
<text text-anchor="start" x="360.932" y="-59" font-family="Helvetica,sans-Serif" font-size="10.00" fill="#000000"> &#160;Retracted &#160;&#160;&#160;&#160;</text>
</g>
</g>
</svg>
