<?xml version="1.0" encoding="UTF-8" standalone="no"?>
<!DOCTYPE svg PUBLIC "-//W3C//DTD SVG 1.1//EN"
 "http://www.w3.org/Graphics/SVG/1.1/DTD/svg11.dtd">
<!-- Generated by graphviz version 2.40.1 (20161225.0304)
 -->
<!-- Title: state transitions Pages: 1 -->
<svg width="563pt" height="134pt"
 viewBox="0.00 0.00 562.96 134.00" xmlns="http://www.w3.org/2000/svg" xmlns:xlink="http://www.w3.org/1999/xlink">
<g id="graph0" class="graph" transform="scale(1 1) rotate(0) translate(4 130)">
<title>state transitions</title>
<polygon fill="#ffffff" stroke="transparent" points="-4,4 -4,-130 558.957,-130 558.957,4 -4,4"/>
<!-- initial -->
<g id="node1" class="node">
<title>initial</title>
<ellipse fill="#000000" stroke="#000000" stroke-width="2" cx="5.5" cy="-63" rx="5.5" ry="5.5"/>
</g>
<!--  &#160;&#160;&#160;&#160;&#160;&#160;&#160;&#160;&#160;&#160;&#160;&#160;&#160;&#160;Default &#160;&#160;&#160;&#160;&#160;&#160;&#160;&#160;&#160; -->
<g id="node2" class="node">
<title> &#160;&#160;&#160;&#160;&#160;&#160;&#160;&#160;&#160;&#160;&#160;&#160;&#160;&#160;Default &#160;&#160;&#160;&#160;&#160;&#160;&#160;&#160;&#160;</title>
<path fill="none" stroke="#008800" stroke-width="2" d="M224.683,-126C224.683,-126 115.683,-126 115.683,-126 109.683,-126 103.683,-120 103.683,-114 103.683,-114 103.683,-12 103.683,-12 103.683,-6 109.683,0 115.683,0 115.683,0 224.683,0 224.683,0 230.683,0 236.683,-6 236.683,-12 236.683,-12 236.683,-114 236.683,-114 236.683,-120 230.683,-126 224.683,-126"/>
<text text-anchor="start" x="109.9942" y="-110.2" font-family="Helvetica,sans-Serif" font-style="italic" font-size="12.00" fill="#000000"> &#160;&#160;&#160;&#160;&#160;&#160;&#160;&#160;&#160;&#160;&#160;&#160;&#160;&#160;Default &#160;&#160;&#160;&#160;&#160;&#160;&#160;&#160;&#160;</text>
<text text-anchor="start" x="110.183" y="-89.2" font-family="Helvetica,sans-Serif" font-size="12.00" fill="#000000">&lt;No Flag&gt;</text>
<text text-anchor="start" x="110.183" y="-69.2" font-family="Helvetica,sans-Serif" font-size="12.00" fill="#000000">&#45;Can publish</text>
<text text-anchor="start" x="110.183" y="-49.2" font-family="Helvetica,sans-Serif" font-size="12.00" fill="#000000">&#45;Can consume</text>
<text text-anchor="start" x="110.183" y="-29.2" font-family="Helvetica,sans-Serif" font-size="12.00" fill="#000000">&#45;Can buy/sell</text>
<text text-anchor="start" x="110.183" y="-9.2" font-family="Helvetica,sans-Serif" font-size="12.00" fill="#000000">&#45;Can stake/unstake</text>
<polygon fill="#008800" stroke="#008800" points="104.183,-103 104.183,-103 237.183,-103 237.183,-103 104.183,-103"/>
<path fill="none" stroke="#008800" stroke-width="2" d="M116.683,-1C116.683,-1 223.683,-1 223.683,-1 229.683,-1 235.683,-7 235.683,-13 235.683,-13 235.683,-113 235.683,-113 235.683,-119 229.683,-125 223.683,-125 223.683,-125 116.683,-125 116.683,-125 110.683,-125 104.683,-119 104.683,-113 104.683,-113 104.683,-13 104.683,-13 104.683,-7 110.683,-1 116.683,-1"/>
</g>
<!-- initial&#45;&gt; &#160;&#160;&#160;&#160;&#160;&#160;&#160;&#160;&#160;&#160;&#160;&#160;&#160;&#160;Default &#160;&#160;&#160;&#160;&#160;&#160;&#160;&#160;&#160; -->
<g id="edge1" class="edge">
<title>initial&#45;&gt; &#160;&#160;&#160;&#160;&#160;&#160;&#160;&#160;&#160;&#160;&#160;&#160;&#160;&#160;Default &#160;&#160;&#160;&#160;&#160;&#160;&#160;&#160;&#160;</title>
<path fill="none" stroke="#000000" d="M11.3612,-63C24.862,-63 59.5732,-63 93.1132,-63"/>
<polygon fill="#000000" stroke="#000000" points="93.4598,-66.5001 103.4598,-63 93.4597,-59.5001 93.4598,-66.5001"/>
<text text-anchor="start" x="19" y="-66" font-family="Helvetica,sans-Serif" font-size="10.00" fill="#000000"> Connect wallet &#160;&#160;</text>
</g>
<!--  &#160;&#160;&#160;&#160;&#160;&#160;&#160;&#160;&#160;Purgatory &#160;&#160;&#160;&#160;&#160;&#160;&#160;&#160;&#160; -->
<g id="node3" class="node">
<title> &#160;&#160;&#160;&#160;&#160;&#160;&#160;&#160;&#160;Purgatory &#160;&#160;&#160;&#160;&#160;&#160;&#160;&#160;&#160;</title>
<polygon fill="transparent" stroke="transparent" stroke-width="2" points="554.957,-126 424.957,-126 424.957,0 554.957,0 554.957,-126"/>
<text text-anchor="start" x="430.6038" y="-109.2" font-family="Helvetica,sans-Serif" font-size="12.00" fill="#000000"> &#160;&#160;&#160;&#160;&#160;&#160;&#160;&#160;&#160;Purgatory &#160;&#160;&#160;&#160;&#160;&#160;&#160;&#160;&#160;</text>
<text text-anchor="start" x="430.957" y="-89.2" font-family="Helvetica,sans-Serif" font-size="12.00" fill="#000000">&lt;Has Purgatory Flag&gt;</text>
<text text-anchor="start" x="430.957" y="-69.2" font-family="Helvetica,sans-Serif" font-size="12.00" fill="#000000">&#45; Can&#39;t publish</text>
<text text-anchor="start" x="430.957" y="-49.2" font-family="Helvetica,sans-Serif" font-size="12.00" fill="#000000">.</text>
<text text-anchor="start" x="430.957" y="-29.2" font-family="Helvetica,sans-Serif" font-size="12.00" fill="#000000">.</text>
<text text-anchor="start" x="430.957" y="-9.2" font-family="Helvetica,sans-Serif" font-size="12.00" fill="#000000">.</text>
<polygon fill="#ffa500" stroke="#ffa500" points="424.957,-103 424.957,-103 554.957,-103 554.957,-103 424.957,-103"/>
<path fill="none" stroke="#ffa500" stroke-width="2" d="M437.957,-1C437.957,-1 541.957,-1 541.957,-1 547.957,-1 553.957,-7 553.957,-13 553.957,-13 553.957,-113 553.957,-113 553.957,-119 547.957,-125 541.957,-125 541.957,-125 437.957,-125 437.957,-125 431.957,-125 425.957,-119 425.957,-113 425.957,-113 425.957,-13 425.957,-13 425.957,-7 431.957,-1 437.957,-1"/>
</g>
<!--  &#160;&#160;&#160;&#160;&#160;&#160;&#160;&#160;&#160;&#160;&#160;&#160;&#160;&#160;Default &#160;&#160;&#160;&#160;&#160;&#160;&#160;&#160;&#160;&#45;&gt; &#160;&#160;&#160;&#160;&#160;&#160;&#160;&#160;&#160;Purgatory &#160;&#160;&#160;&#160;&#160;&#160;&#160;&#160;&#160; -->
<g id="edge2" class="edge">
<title> &#160;&#160;&#160;&#160;&#160;&#160;&#160;&#160;&#160;&#160;&#160;&#160;&#160;&#160;Default &#160;&#160;&#160;&#160;&#160;&#160;&#160;&#160;&#160;&#45;&gt; &#160;&#160;&#160;&#160;&#160;&#160;&#160;&#160;&#160;Purgatory &#160;&#160;&#160;&#160;&#160;&#160;&#160;&#160;&#160;</title>
<path fill="none" stroke="#000000" d="M236.8289,-63C288.6741,-63 360.6249,-63 414.5691,-63"/>
<polygon fill="#000000" stroke="#000000" points="414.7645,-66.5001 424.7644,-63 414.7644,-59.5001 414.7645,-66.5001"/>
<text text-anchor="start" x="244.683" y="-66" font-family="Helvetica,sans-Serif" font-size="10.00" fill="#000000"> &#160;Any actor asset enters purgatory, .. &#160;&#160;&#160;</text>
</g>
<!--  &#160;&#160;&#160;&#160;&#160;&#160;&#160;&#160;&#160;Purgatory &#160;&#160;&#160;&#160;&#160;&#160;&#160;&#160;&#160;&#45;&gt; &#160;&#160;&#160;&#160;&#160;&#160;&#160;&#160;&#160;&#160;&#160;&#160;&#160;&#160;Default &#160;&#160;&#160;&#160;&#160;&#160;&#160;&#160;&#160; -->
<g id="edge3" class="edge">
<title> &#160;&#160;&#160;&#160;&#160;&#160;&#160;&#160;&#160;Purgatory &#160;&#160;&#160;&#160;&#160;&#160;&#160;&#160;&#160;&#45;&gt; &#160;&#160;&#160;&#160;&#160;&#160;&#160;&#160;&#160;&#160;&#160;&#160;&#160;&#160;Default &#160;&#160;&#160;&#160;&#160;&#160;&#160;&#160;&#160;</title>
<path fill="none" stroke="#000000" d="M424.816,-47.0525C422.1696,-46.6515 419.5425,-46.2971 416.957,-46 344.0111,-37.6184 322.5129,-37.4304 247.0583,-45.8632"/>
<polygon fill="#000000" stroke="#000000" points="246.6157,-42.3908 237.0724,-46.9925 247.4024,-49.3465 246.6157,-42.3908"/>
<text text-anchor="start" x="271.918" y="-49" font-family="Helvetica,sans-Serif" font-size="10.00" fill="#000000">All assets left purgatory &#160;&#160;&#160;&#160;</text>
</g>
</g>
</svg>
