<?xml version="1.0" encoding="UTF-8" standalone="no"?>
<!DOCTYPE svg PUBLIC "-//W3C//DTD SVG 1.1//EN"
 "http://www.w3.org/Graphics/SVG/1.1/DTD/svg11.dtd">
<!-- Generated by graphviz version 2.40.1 (20161225.0304)
 -->
<!-- Title: state transitions Pages: 1 -->
<svg width="786pt" height="134pt"
 viewBox="0.00 0.00 785.99 134.00" xmlns="http://www.w3.org/2000/svg" xmlns:xlink="http://www.w3.org/1999/xlink">
<g id="graph0" class="graph" transform="scale(1 1) rotate(0) translate(4 130)">
<title>state transitions</title>
<polygon fill="#ffffff" stroke="transparent" points="-4,4 -4,-130 781.994,-130 781.994,4 -4,4"/>
<!-- initial -->
<g id="node1" class="node">
<title>initial</title>
<ellipse fill="#000000" stroke="#000000" stroke-width="2" cx="5.5" cy="-63" rx="5.5" ry="5.5"/>
</g>
<!--  &#160;&#160;&#160;&#160;&#160;&#160;&#160;&#160;&#160;&#160;&#160;&#160;&#160;&#160;Default &#160;&#160;&#160;&#160;&#160;&#160;&#160;&#160;&#160; -->
<g id="node2" class="node">
<title> &#160;&#160;&#160;&#160;&#160;&#160;&#160;&#160;&#160;&#160;&#160;&#160;&#160;&#160;Default &#160;&#160;&#160;&#160;&#160;&#160;&#160;&#160;&#160;</title>
<path fill="none" stroke="#008800" stroke-width="2" d="M224.683,-126C224.683,-126 115.683,-126 115.683,-126 109.683,-126 103.683,-120 103.683,-114 103.683,-114 103.683,-12 103.683,-12 103.683,-6 109.683,0 115.683,0 115.683,0 224.683,0 224.683,0 230.683,0 236.683,-6 236.683,-12 236.683,-12 236.683,-114 236.683,-114 236.683,-120 230.683,-126 224.683,-126"/>
<text text-anchor="start" x="109.9942" y="-110.2" font-family="Helvetica,sans-Serif" font-style="italic" font-size="12.00" fill="#000000"> &#160;&#160;&#160;&#160;&#160;&#160;&#160;&#160;&#160;&#160;&#160;&#160;&#160;&#160;Default &#160;&#160;&#160;&#160;&#160;&#160;&#160;&#160;&#160;</text>
<text text-anchor="start" x="110.183" y="-89.2" font-family="Helvetica,sans-Serif" font-size="12.00" fill="#000000">&lt;Visible&gt;</text>
<text text-anchor="start" x="110.183" y="-69.2" font-family="Helvetica,sans-Serif" font-size="12.00" fill="#000000">&#45;Can publish</text>
<text text-anchor="start" x="110.183" y="-49.2" font-family="Helvetica,sans-Serif" font-size="12.00" fill="#000000">&#45;Can consume</text>
<text text-anchor="start" x="110.183" y="-29.2" font-family="Helvetica,sans-Serif" font-size="12.00" fill="#000000">&#45;Can buy/sell</text>
<text text-anchor="start" x="110.183" y="-9.2" font-family="Helvetica,sans-Serif" font-size="12.00" fill="#000000">&#45;Can stake/unstake</text>
<polygon fill="#008800" stroke="#008800" points="104.183,-103 104.183,-103 237.183,-103 237.183,-103 104.183,-103"/>
<path fill="none" stroke="#008800" stroke-width="2" d="M116.683,-1C116.683,-1 223.683,-1 223.683,-1 229.683,-1 235.683,-7 235.683,-13 235.683,-13 235.683,-113 235.683,-113 235.683,-119 229.683,-125 223.683,-125 223.683,-125 116.683,-125 116.683,-125 110.683,-125 104.683,-119 104.683,-113 104.683,-113 104.683,-13 104.683,-13 104.683,-7 110.683,-1 116.683,-1"/>
</g>
<!-- initial&#45;&gt; &#160;&#160;&#160;&#160;&#160;&#160;&#160;&#160;&#160;&#160;&#160;&#160;&#160;&#160;Default &#160;&#160;&#160;&#160;&#160;&#160;&#160;&#160;&#160; -->
<g id="edge1" class="edge">
<title>initial&#45;&gt; &#160;&#160;&#160;&#160;&#160;&#160;&#160;&#160;&#160;&#160;&#160;&#160;&#160;&#160;Default &#160;&#160;&#160;&#160;&#160;&#160;&#160;&#160;&#160;</title>
<path fill="none" stroke="#000000" d="M11.3612,-63C24.862,-63 59.5732,-63 93.1132,-63"/>
<polygon fill="#000000" stroke="#000000" points="93.4598,-66.5001 103.4598,-63 93.4597,-59.5001 93.4598,-66.5001"/>
<text text-anchor="start" x="19" y="-66" font-family="Helvetica,sans-Serif" font-size="10.00" fill="#000000"> Connect wallet &#160;&#160;</text>
</g>
<!--  &#160;&#160;&#160;&#160;&#160;&#160;&#160;&#160;&#160;Purgatory &#160;&#160;&#160;&#160;&#160;&#160;&#160;&#160;&#160; -->
<g id="node3" class="node">
<title> &#160;&#160;&#160;&#160;&#160;&#160;&#160;&#160;&#160;Purgatory &#160;&#160;&#160;&#160;&#160;&#160;&#160;&#160;&#160;</title>
<polygon fill="transparent" stroke="transparent" stroke-width="2" points="558.844,-106 428.844,-106 428.844,-20 558.844,-20 558.844,-106"/>
<text text-anchor="start" x="434.4908" y="-89.2" font-family="Helvetica,sans-Serif" font-size="12.00" fill="#000000"> &#160;&#160;&#160;&#160;&#160;&#160;&#160;&#160;&#160;Purgatory &#160;&#160;&#160;&#160;&#160;&#160;&#160;&#160;&#160;</text>
<text text-anchor="start" x="434.844" y="-69.2" font-family="Helvetica,sans-Serif" font-size="12.00" fill="#000000">&lt;Visible with Flag&gt;</text>
<text text-anchor="start" x="434.844" y="-49.2" font-family="Helvetica,sans-Serif" font-size="12.00" fill="#000000">.</text>
<text text-anchor="start" x="434.844" y="-29.2" font-family="Helvetica,sans-Serif" font-size="12.00" fill="#000000">.</text>
<polygon fill="#ffa500" stroke="#ffa500" points="428.844,-83 428.844,-83 558.844,-83 558.844,-83 428.844,-83"/>
<path fill="none" stroke="#ffa500" stroke-width="2" d="M441.844,-21C441.844,-21 545.844,-21 545.844,-21 551.844,-21 557.844,-27 557.844,-33 557.844,-33 557.844,-93 557.844,-93 557.844,-99 551.844,-105 545.844,-105 545.844,-105 441.844,-105 441.844,-105 435.844,-105 429.844,-99 429.844,-93 429.844,-93 429.844,-33 429.844,-33 429.844,-27 435.844,-21 441.844,-21"/>
</g>
<!--  &#160;&#160;&#160;&#160;&#160;&#160;&#160;&#160;&#160;&#160;&#160;&#160;&#160;&#160;Default &#160;&#160;&#160;&#160;&#160;&#160;&#160;&#160;&#160;&#45;&gt; &#160;&#160;&#160;&#160;&#160;&#160;&#160;&#160;&#160;Purgatory &#160;&#160;&#160;&#160;&#160;&#160;&#160;&#160;&#160; -->
<g id="edge2" class="edge">
<title> &#160;&#160;&#160;&#160;&#160;&#160;&#160;&#160;&#160;&#160;&#160;&#160;&#160;&#160;Default &#160;&#160;&#160;&#160;&#160;&#160;&#160;&#160;&#160;&#45;&gt; &#160;&#160;&#160;&#160;&#160;&#160;&#160;&#160;&#160;Purgatory &#160;&#160;&#160;&#160;&#160;&#160;&#160;&#160;&#160;</title>
<path fill="none" stroke="#000000" d="M236.8533,-63C289.7263,-63 363.618,-63 418.6047,-63"/>
<polygon fill="#000000" stroke="#000000" points="418.6427,-66.5001 428.6426,-63 418.6426,-59.5001 418.6427,-66.5001"/>
<text text-anchor="start" x="252.1845" y="-66" font-family="Helvetica,sans-Serif" font-size="10.00" fill="#000000"> &#160;Any actor asset enters purgatory &#160;&#160;&#160;</text>
</g>
<!--  &#160;&#160;&#160;&#160;&#160;&#160;&#160;&#160;&#160;Purgatory &#160;&#160;&#160;&#160;&#160;&#160;&#160;&#160;&#160;&#45;&gt; &#160;&#160;&#160;&#160;&#160;&#160;&#160;&#160;&#160;&#160;&#160;&#160;&#160;&#160;Default &#160;&#160;&#160;&#160;&#160;&#160;&#160;&#160;&#160; -->
<g id="edge5" class="edge">
<title> &#160;&#160;&#160;&#160;&#160;&#160;&#160;&#160;&#160;Purgatory &#160;&#160;&#160;&#160;&#160;&#160;&#160;&#160;&#160;&#45;&gt; &#160;&#160;&#160;&#160;&#160;&#160;&#160;&#160;&#160;&#160;&#160;&#160;&#160;&#160;Default &#160;&#160;&#160;&#160;&#160;&#160;&#160;&#160;&#160;</title>
<path fill="none" stroke="#000000" d="M428.703,-47.0525C426.0566,-46.6515 423.4295,-46.2971 420.844,-46 346.2523,-37.4293 324.2689,-37.2371 247.2634,-45.8403"/>
<polygon fill="#000000" stroke="#000000" points="246.6159,-42.3911 237.0724,-46.9925 247.4024,-49.3468 246.6159,-42.3911"/>
<text text-anchor="start" x="244.683" y="-49" font-family="Helvetica,sans-Serif" font-size="10.00" fill="#000000">All assets left {purgatory or disabled} &#160;&#160;&#160;&#160;</text>
</g>
<!--  &#160;&#160;&#160;&#160;Disabled &#160;&#160;&#160;&#160; -->
<g id="node4" class="node">
<title> &#160;&#160;&#160;&#160;Disabled &#160;&#160;&#160;&#160;</title>
<polygon fill="transparent" stroke="transparent" stroke-width="2" points="777.994,-106 685.994,-106 685.994,-20 777.994,-20 777.994,-106"/>
<text text-anchor="start" x="691.9842" y="-89.2" font-family="Helvetica,sans-Serif" font-size="12.00" fill="#000000"> &#160;&#160;&#160;&#160;Disabled &#160;&#160;&#160;&#160;</text>
<text text-anchor="start" x="691.994" y="-69.2" font-family="Helvetica,sans-Serif" font-size="12.00" fill="#000000">&lt;Not Visible&gt;</text>
<text text-anchor="start" x="691.994" y="-49.2" font-family="Helvetica,sans-Serif" font-size="12.00" fill="#000000">.</text>
<text text-anchor="start" x="691.994" y="-29.2" font-family="Helvetica,sans-Serif" font-size="12.00" fill="#000000">.</text>
<polygon fill="#ff0000" stroke="#ff0000" points="685.994,-83 685.994,-83 777.994,-83 777.994,-83 685.994,-83"/>
<path fill="none" stroke="#ff0000" stroke-width="2" d="M698.994,-21C698.994,-21 764.994,-21 764.994,-21 770.994,-21 776.994,-27 776.994,-33 776.994,-33 776.994,-93 776.994,-93 776.994,-99 770.994,-105 764.994,-105 764.994,-105 698.994,-105 698.994,-105 692.994,-105 686.994,-99 686.994,-93 686.994,-93 686.994,-33 686.994,-33 686.994,-27 692.994,-21 698.994,-21"/>
</g>
<!--  &#160;&#160;&#160;&#160;&#160;&#160;&#160;&#160;&#160;Purgatory &#160;&#160;&#160;&#160;&#160;&#160;&#160;&#160;&#160;&#45;&gt; &#160;&#160;&#160;&#160;Disabled &#160;&#160;&#160;&#160; -->
<g id="edge3" class="edge">
<title> &#160;&#160;&#160;&#160;&#160;&#160;&#160;&#160;&#160;Purgatory &#160;&#160;&#160;&#160;&#160;&#160;&#160;&#160;&#160;&#45;&gt; &#160;&#160;&#160;&#160;Disabled &#160;&#160;&#160;&#160;</title>
<path fill="none" stroke="#000000" d="M558.9195,-63C595.5204,-63 640.7569,-63 675.8023,-63"/>
<polygon fill="#000000" stroke="#000000" points="675.8646,-66.5001 685.8646,-63 675.8645,-59.5001 675.8646,-66.5001"/>
<text text-anchor="start" x="577.692" y="-66" font-family="Helvetica,sans-Serif" font-size="10.00" fill="#000000">Time passed AND &#160;&#160;</text>
</g>
<!--  &#160;&#160;&#160;&#160;&#160;&#160;&#160;&#160;&#160;Purgatory &#160;&#160;&#160;&#160;&#160;&#160;&#160;&#160;&#160;&#45;&gt; &#160;&#160;&#160;&#160;Disabled &#160;&#160;&#160;&#160; -->
<g id="edge4" class="edge">
<title> &#160;&#160;&#160;&#160;&#160;&#160;&#160;&#160;&#160;Purgatory &#160;&#160;&#160;&#160;&#160;&#160;&#160;&#160;&#160;&#45;&gt; &#160;&#160;&#160;&#160;Disabled &#160;&#160;&#160;&#160;</title>
<path fill="none" stroke="#000000" d="M558.985,-47.0525C561.6314,-46.6515 564.2585,-46.2971 566.844,-46 612.8538,-40.7134 627.3715,-38.7437 675.8071,-45.9333"/>
<polygon fill="#000000" stroke="#000000" points="675.5501,-49.4349 685.9658,-47.4951 676.6138,-42.5162 675.5501,-49.4349"/>
<text text-anchor="start" x="566.844" y="-49" font-family="Helvetica,sans-Serif" font-size="10.00" fill="#000000">Enough stake removed &#160;&#160;</text>
</g>
</g>
</svg>
