<?xml version="1.0" encoding="UTF-8" standalone="no"?>
<!DOCTYPE svg PUBLIC "-//W3C//DTD SVG 1.1//EN"
 "http://www.w3.org/Graphics/SVG/1.1/DTD/svg11.dtd">
<!-- Generated by graphviz version 2.40.1 (20161225.0304)
 -->
<!-- Title: state transitions Pages: 1 -->
<svg width="870pt" height="94pt"
 viewBox="0.00 0.00 870.39 94.00" xmlns="http://www.w3.org/2000/svg" xmlns:xlink="http://www.w3.org/1999/xlink">
<g id="graph0" class="graph" transform="scale(1 1) rotate(0) translate(4 90)">
<title>state transitions</title>
<polygon fill="#ffffff" stroke="transparent" points="-4,4 -4,-90 866.394,-90 866.394,4 -4,4"/>
<!-- initial -->
<g id="node1" class="node">
<title>initial</title>
<ellipse fill="#000000" stroke="#000000" stroke-width="2" cx="5.5" cy="-43" rx="5.5" ry="5.5"/>
</g>
<!--  &#160;&#160;&#160;&#160;&#160;&#160;&#160;&#160;&#160;&#160;&#160;&#160;&#160;&#160;Default &#160;&#160;&#160;&#160;&#160;&#160;&#160;&#160;&#160;&#160;&#160;&#160;&#160;&#160;&#160;&#160;&#160;&#160;&#160;&#160;&#160;&#160;&#160;&#160; -->
<g id="node2" class="node">
<title> &#160;&#160;&#160;&#160;&#160;&#160;&#160;&#160;&#160;&#160;&#160;&#160;&#160;&#160;Default &#160;&#160;&#160;&#160;&#160;&#160;&#160;&#160;&#160;&#160;&#160;&#160;&#160;&#160;&#160;&#160;&#160;&#160;&#160;&#160;&#160;&#160;&#160;&#160;</title>
<path fill="none" stroke="#008800" stroke-width="2" d="M268.576,-86C268.576,-86 109.576,-86 109.576,-86 103.576,-86 97.576,-80 97.576,-74 97.576,-74 97.576,-12 97.576,-12 97.576,-6 103.576,0 109.576,0 109.576,0 268.576,0 268.576,0 274.576,0 280.576,-6 280.576,-12 280.576,-12 280.576,-74 280.576,-74 280.576,-80 274.576,-86 268.576,-86"/>
<text text-anchor="start" x="103.8762" y="-70.2" font-family="Helvetica,sans-Serif" font-style="italic" font-size="12.00" fill="#000000"> &#160;&#160;&#160;&#160;&#160;&#160;&#160;&#160;&#160;&#160;&#160;&#160;&#160;&#160;Default &#160;&#160;&#160;&#160;&#160;&#160;&#160;&#160;&#160;&#160;&#160;&#160;&#160;&#160;&#160;&#160;&#160;&#160;&#160;&#160;&#160;&#160;&#160;&#160;</text>
<text text-anchor="start" x="104.076" y="-49.2" font-family="Helvetica,sans-Serif" font-size="12.00" fill="#000000">&lt;Visible&gt;</text>
<text text-anchor="start" x="104.076" y="-29.2" font-family="Helvetica,sans-Serif" font-size="12.00" fill="#000000">&#45;Buy/Sell</text>
<text text-anchor="start" x="104.076" y="-9.2" font-family="Helvetica,sans-Serif" font-size="12.00" fill="#000000">&#45;Stake/Unstake</text>
<polygon fill="#008800" stroke="#008800" points="98.076,-63 98.076,-63 281.076,-63 281.076,-63 98.076,-63"/>
<path fill="none" stroke="#008800" stroke-width="2" d="M110.576,-1C110.576,-1 267.576,-1 267.576,-1 273.576,-1 279.576,-7 279.576,-13 279.576,-13 279.576,-73 279.576,-73 279.576,-79 273.576,-85 267.576,-85 267.576,-85 110.576,-85 110.576,-85 104.576,-85 98.576,-79 98.576,-73 98.576,-73 98.576,-13 98.576,-13 98.576,-7 104.576,-1 110.576,-1"/>
</g>
<!-- initial&#45;&gt; &#160;&#160;&#160;&#160;&#160;&#160;&#160;&#160;&#160;&#160;&#160;&#160;&#160;&#160;Default &#160;&#160;&#160;&#160;&#160;&#160;&#160;&#160;&#160;&#160;&#160;&#160;&#160;&#160;&#160;&#160;&#160;&#160;&#160;&#160;&#160;&#160;&#160;&#160; -->
<g id="edge1" class="edge">
<title>initial&#45;&gt; &#160;&#160;&#160;&#160;&#160;&#160;&#160;&#160;&#160;&#160;&#160;&#160;&#160;&#160;Default &#160;&#160;&#160;&#160;&#160;&#160;&#160;&#160;&#160;&#160;&#160;&#160;&#160;&#160;&#160;&#160;&#160;&#160;&#160;&#160;&#160;&#160;&#160;&#160;</title>
<path fill="none" stroke="#000000" d="M11.1954,-43C23.5904,-43 54.5332,-43 87.2011,-43"/>
<polygon fill="#000000" stroke="#000000" points="87.3763,-46.5001 97.3762,-43 87.3762,-39.5001 87.3763,-46.5001"/>
<text text-anchor="start" x="19" y="-46" font-family="Helvetica,sans-Serif" font-size="10.00" fill="#000000"> Publish asset &#160;&#160;</text>
</g>
<!--  &#160;&#160;&#160;&#160;&#160;&#160;&#160;&#160;&#160;&#160;&#160;&#160;&#160;&#160;Purgatory &#160;&#160;&#160;&#160;&#160;&#160;&#160;&#160;&#160;&#160;&#160;&#160;&#160;&#160;&#160;&#160;&#160;&#160;&#160;&#160;&#160;&#160;&#160;&#160; -->
<g id="node3" class="node">
<title> &#160;&#160;&#160;&#160;&#160;&#160;&#160;&#160;&#160;&#160;&#160;&#160;&#160;&#160;Purgatory &#160;&#160;&#160;&#160;&#160;&#160;&#160;&#160;&#160;&#160;&#160;&#160;&#160;&#160;&#160;&#160;&#160;&#160;&#160;&#160;&#160;&#160;&#160;&#160;</title>
<polygon fill="transparent" stroke="transparent" stroke-width="2" points="557.481,-86 360.481,-86 360.481,0 557.481,0 557.481,-86"/>
<text text-anchor="start" x="366.7798" y="-69.2" font-family="Helvetica,sans-Serif" font-size="12.00" fill="#000000"> &#160;&#160;&#160;&#160;&#160;&#160;&#160;&#160;&#160;&#160;&#160;&#160;&#160;&#160;Purgatory &#160;&#160;&#160;&#160;&#160;&#160;&#160;&#160;&#160;&#160;&#160;&#160;&#160;&#160;&#160;&#160;&#160;&#160;&#160;&#160;&#160;&#160;&#160;&#160;</text>
<text text-anchor="start" x="366.981" y="-49.2" font-family="Helvetica,sans-Serif" font-size="12.00" fill="#000000">&lt;Visible&gt;</text>
<text text-anchor="start" x="366.981" y="-29.2" font-family="Helvetica,sans-Serif" font-size="12.00" fill="#000000">&#45;Unstake (non&#45;publisher only)</text>
<text text-anchor="start" x="366.981" y="-9.2" font-family="Helvetica,sans-Serif" font-size="12.00" fill="#000000">.</text>
<polygon fill="#ffa500" stroke="#ffa500" points="360.981,-63 360.981,-63 557.981,-63 557.981,-63 360.981,-63"/>
<path fill="none" stroke="#ffa500" stroke-width="2" d="M373.481,-1C373.481,-1 544.481,-1 544.481,-1 550.481,-1 556.481,-7 556.481,-13 556.481,-13 556.481,-73 556.481,-73 556.481,-79 550.481,-85 544.481,-85 544.481,-85 373.481,-85 373.481,-85 367.481,-85 361.481,-79 361.481,-73 361.481,-73 361.481,-13 361.481,-13 361.481,-7 367.481,-1 373.481,-1"/>
</g>
<!--  &#160;&#160;&#160;&#160;&#160;&#160;&#160;&#160;&#160;&#160;&#160;&#160;&#160;&#160;Default &#160;&#160;&#160;&#160;&#160;&#160;&#160;&#160;&#160;&#160;&#160;&#160;&#160;&#160;&#160;&#160;&#160;&#160;&#160;&#160;&#160;&#160;&#160;&#160;&#45;&gt; &#160;&#160;&#160;&#160;&#160;&#160;&#160;&#160;&#160;&#160;&#160;&#160;&#160;&#160;Purgatory &#160;&#160;&#160;&#160;&#160;&#160;&#160;&#160;&#160;&#160;&#160;&#160;&#160;&#160;&#160;&#160;&#160;&#160;&#160;&#160;&#160;&#160;&#160;&#160; -->
<g id="edge2" class="edge">
<title> &#160;&#160;&#160;&#160;&#160;&#160;&#160;&#160;&#160;&#160;&#160;&#160;&#160;&#160;Default &#160;&#160;&#160;&#160;&#160;&#160;&#160;&#160;&#160;&#160;&#160;&#160;&#160;&#160;&#160;&#160;&#160;&#160;&#160;&#160;&#160;&#160;&#160;&#160;&#45;&gt; &#160;&#160;&#160;&#160;&#160;&#160;&#160;&#160;&#160;&#160;&#160;&#160;&#160;&#160;Purgatory &#160;&#160;&#160;&#160;&#160;&#160;&#160;&#160;&#160;&#160;&#160;&#160;&#160;&#160;&#160;&#160;&#160;&#160;&#160;&#160;&#160;&#160;&#160;&#160;</title>
<path fill="none" stroke="#000000" d="M280.8301,-43C303.0619,-43 327.0421,-43 349.9824,-43"/>
<polygon fill="#000000" stroke="#000000" points="350.0894,-46.5001 360.0894,-43 350.0894,-39.5001 350.0894,-46.5001"/>
<text text-anchor="start" x="288.576" y="-46" font-family="Helvetica,sans-Serif" font-size="10.00" fill="#000000"> Got Notice &#160;&#160;&#160;&#160;</text>
</g>
<!--  &#160;&#160;&#160;&#160;&#160;&#160;&#160;&#160;&#160;&#160;&#160;&#160;&#160;&#160;Purgatory &#160;&#160;&#160;&#160;&#160;&#160;&#160;&#160;&#160;&#160;&#160;&#160;&#160;&#160;&#160;&#160;&#160;&#160;&#160;&#160;&#160;&#160;&#160;&#160;&#45;&gt; &#160;&#160;&#160;&#160;&#160;&#160;&#160;&#160;&#160;&#160;&#160;&#160;&#160;&#160;Default &#160;&#160;&#160;&#160;&#160;&#160;&#160;&#160;&#160;&#160;&#160;&#160;&#160;&#160;&#160;&#160;&#160;&#160;&#160;&#160;&#160;&#160;&#160;&#160; -->
<g id="edge5" class="edge">
<title> &#160;&#160;&#160;&#160;&#160;&#160;&#160;&#160;&#160;&#160;&#160;&#160;&#160;&#160;Purgatory &#160;&#160;&#160;&#160;&#160;&#160;&#160;&#160;&#160;&#160;&#160;&#160;&#160;&#160;&#160;&#160;&#160;&#160;&#160;&#160;&#160;&#160;&#160;&#160;&#45;&gt; &#160;&#160;&#160;&#160;&#160;&#160;&#160;&#160;&#160;&#160;&#160;&#160;&#160;&#160;Default &#160;&#160;&#160;&#160;&#160;&#160;&#160;&#160;&#160;&#160;&#160;&#160;&#160;&#160;&#160;&#160;&#160;&#160;&#160;&#160;&#160;&#160;&#160;&#160;</title>
<path fill="none" stroke="#000000" d="M360.407,-26.7026C357.7399,-26.4427 355.0941,-26.2072 352.481,-26 327.0433,-23.9825 318.5745,-23.6527 290.8282,-25.8976"/>
<polygon fill="#000000" stroke="#000000" points="290.2973,-22.4299 280.6272,-26.7589 290.8863,-29.4051 290.2973,-22.4299"/>
<text text-anchor="start" x="289.131" y="-29" font-family="Helvetica,sans-Serif" font-size="10.00" fill="#000000"> &#160;&#160;Retracted &#160;&#160;&#160;</text>
</g>
<!--  &#160;&#160;&#160;&#160;&#160;&#160;&#160;&#160;&#160;&#160;&#160;&#160;&#160;&#160;Disabled &#160;&#160;&#160;&#160;&#160;&#160;&#160;&#160;&#160;&#160;&#160;&#160;&#160;&#160;&#160;&#160;&#160;&#160;&#160;&#160;&#160;&#160;&#160;&#160;&#160;&#160;&#160;&#160; -->
<g id="node4" class="node">
<title> &#160;&#160;&#160;&#160;&#160;&#160;&#160;&#160;&#160;&#160;&#160;&#160;&#160;&#160;Disabled &#160;&#160;&#160;&#160;&#160;&#160;&#160;&#160;&#160;&#160;&#160;&#160;&#160;&#160;&#160;&#160;&#160;&#160;&#160;&#160;&#160;&#160;&#160;&#160;&#160;&#160;&#160;&#160;</title>
<polygon fill="transparent" stroke="transparent" stroke-width="2" points="862.394,-86 657.394,-86 657.394,0 862.394,0 862.394,-86"/>
<text text-anchor="start" x="663.6926" y="-69.2" font-family="Helvetica,sans-Serif" font-size="12.00" fill="#000000"> &#160;&#160;&#160;&#160;&#160;&#160;&#160;&#160;&#160;&#160;&#160;&#160;&#160;&#160;Disabled &#160;&#160;&#160;&#160;&#160;&#160;&#160;&#160;&#160;&#160;&#160;&#160;&#160;&#160;&#160;&#160;&#160;&#160;&#160;&#160;&#160;&#160;&#160;&#160;&#160;&#160;&#160;&#160;</text>
<text text-anchor="start" x="663.894" y="-49.2" font-family="Helvetica,sans-Serif" font-size="12.00" fill="#000000">&lt;Not Visible&gt;</text>
<text text-anchor="start" x="663.894" y="-29.2" font-family="Helvetica,sans-Serif" font-size="12.00" fill="#000000">.</text>
<text text-anchor="start" x="663.894" y="-9.2" font-family="Helvetica,sans-Serif" font-size="12.00" fill="#000000">.</text>
<polygon fill="#ff0000" stroke="#ff0000" points="657.894,-63 657.894,-63 862.894,-63 862.894,-63 657.894,-63"/>
<path fill="none" stroke="#ff0000" stroke-width="2" d="M670.394,-1C670.394,-1 849.394,-1 849.394,-1 855.394,-1 861.394,-7 861.394,-13 861.394,-13 861.394,-73 861.394,-73 861.394,-79 855.394,-85 849.394,-85 849.394,-85 670.394,-85 670.394,-85 664.394,-85 658.394,-79 658.394,-73 658.394,-73 658.394,-13 658.394,-13 658.394,-7 664.394,-1 670.394,-1"/>
</g>
<!--  &#160;&#160;&#160;&#160;&#160;&#160;&#160;&#160;&#160;&#160;&#160;&#160;&#160;&#160;Purgatory &#160;&#160;&#160;&#160;&#160;&#160;&#160;&#160;&#160;&#160;&#160;&#160;&#160;&#160;&#160;&#160;&#160;&#160;&#160;&#160;&#160;&#160;&#160;&#160;&#45;&gt; &#160;&#160;&#160;&#160;&#160;&#160;&#160;&#160;&#160;&#160;&#160;&#160;&#160;&#160;Disabled &#160;&#160;&#160;&#160;&#160;&#160;&#160;&#160;&#160;&#160;&#160;&#160;&#160;&#160;&#160;&#160;&#160;&#160;&#160;&#160;&#160;&#160;&#160;&#160;&#160;&#160;&#160;&#160; -->
<g id="edge3" class="edge">
<title> &#160;&#160;&#160;&#160;&#160;&#160;&#160;&#160;&#160;&#160;&#160;&#160;&#160;&#160;Purgatory &#160;&#160;&#160;&#160;&#160;&#160;&#160;&#160;&#160;&#160;&#160;&#160;&#160;&#160;&#160;&#160;&#160;&#160;&#160;&#160;&#160;&#160;&#160;&#160;&#45;&gt; &#160;&#160;&#160;&#160;&#160;&#160;&#160;&#160;&#160;&#160;&#160;&#160;&#160;&#160;Disabled &#160;&#160;&#160;&#160;&#160;&#160;&#160;&#160;&#160;&#160;&#160;&#160;&#160;&#160;&#160;&#160;&#160;&#160;&#160;&#160;&#160;&#160;&#160;&#160;&#160;&#160;&#160;&#160;</title>
<path fill="none" stroke="#000000" d="M557.5112,-43C586.1065,-43 617.5542,-43 646.9594,-43"/>
<polygon fill="#000000" stroke="#000000" points="647.2672,-46.5001 657.2671,-43 647.2671,-39.5001 647.2672,-46.5001"/>
<text text-anchor="start" x="587.9925" y="-46" font-family="Helvetica,sans-Serif" font-size="10.00" fill="#000000"> &#160;Time &#160;&#160;&#160;</text>
</g>
<!--  &#160;&#160;&#160;&#160;&#160;&#160;&#160;&#160;&#160;&#160;&#160;&#160;&#160;&#160;Purgatory &#160;&#160;&#160;&#160;&#160;&#160;&#160;&#160;&#160;&#160;&#160;&#160;&#160;&#160;&#160;&#160;&#160;&#160;&#160;&#160;&#160;&#160;&#160;&#160;&#45;&gt; &#160;&#160;&#160;&#160;&#160;&#160;&#160;&#160;&#160;&#160;&#160;&#160;&#160;&#160;Disabled &#160;&#160;&#160;&#160;&#160;&#160;&#160;&#160;&#160;&#160;&#160;&#160;&#160;&#160;&#160;&#160;&#160;&#160;&#160;&#160;&#160;&#160;&#160;&#160;&#160;&#160;&#160;&#160; -->
<g id="edge4" class="edge">
<title> &#160;&#160;&#160;&#160;&#160;&#160;&#160;&#160;&#160;&#160;&#160;&#160;&#160;&#160;Purgatory &#160;&#160;&#160;&#160;&#160;&#160;&#160;&#160;&#160;&#160;&#160;&#160;&#160;&#160;&#160;&#160;&#160;&#160;&#160;&#160;&#160;&#160;&#160;&#160;&#45;&gt; &#160;&#160;&#160;&#160;&#160;&#160;&#160;&#160;&#160;&#160;&#160;&#160;&#160;&#160;Disabled &#160;&#160;&#160;&#160;&#160;&#160;&#160;&#160;&#160;&#160;&#160;&#160;&#160;&#160;&#160;&#160;&#160;&#160;&#160;&#160;&#160;&#160;&#160;&#160;&#160;&#160;&#160;&#160;</title>
<path fill="none" stroke="#000000" d="M557.555,-26.7026C560.2221,-26.4427 562.8679,-26.2072 565.481,-26 599.6092,-23.2933 610.4554,-23.1596 646.8986,-25.8775"/>
<polygon fill="#000000" stroke="#000000" points="647.0787,-29.4015 657.3166,-26.6747 647.6129,-22.4219 647.0787,-29.4015"/>
<text text-anchor="start" x="565.481" y="-29" font-family="Helvetica,sans-Serif" font-size="10.00" fill="#000000"> &#160;Stake removed &#160;&#160;&#160;</text>
</g>
</g>
</svg>
